<svg xmlns="http://www.w3.org/2000/svg" id="Layer_2" data-name="Layer 2" viewBox="0 0 187.88 187.95"><defs><style>      .cls-1 {        fill: #fff;        stroke-width: 0px;      }    </style></defs><g id="Layer_1-2" data-name="Layer 1"><g><path class="cls-1" d="M93.51,187.95C41.51,187.81-.11,145.71,0,93.35.11,41.36,42.43-.07,95.37,0c50.94.06,92.69,43.02,92.51,95.18-.18,51.19-42.61,92.9-94.37,92.77ZM33.85,93.95c0,9.65-.37,19.32.08,28.95.78,16.63,13.16,30.07,29.76,30.78,20.1.86,40.28.86,60.38.03,16.64-.69,29.32-14.06,29.81-30.69.56-19.29.57-38.61.02-57.9-.48-16.69-13.08-30.04-29.7-30.77-19.93-.87-39.96-.95-59.89-.09-17.52.76-29.76,14.25-30.4,31.74-.34,9.31-.06,18.64-.06,27.96Z"></path><path class="cls-1" d="M143.71,93.74c0,8.82.33,17.65-.07,26.46-.67,14.71-7.65,22.03-22.41,22.75-16.61.8-33.27.85-49.9,1.06-3.13.04-6.32-.46-9.39-1.1-9.81-2.04-15.95-8.02-16.58-19.17-1.08-19.24-1.54-38.58-.95-57.84.39-12.69,7.72-19.82,20.9-20.53,19.08-1.02,38.26-1.18,57.35-.47,12.93.48,19.2,7.44,20.11,20.43.66,9.43.95,28,.95,28.43ZM61.69,93.33c.01,19.05,13.72,33.66,31.53,33.61,19.2-.06,33.14-13.44,33.17-31.86.03-18.88-13.53-33.91-30.7-34.02-19.48-.12-34.01,13.67-34,32.27ZM133.01,62.25c.05-3.82-3.16-7.29-6.74-7.27-3.65.02-7.15,3.45-7.13,7,.02,3.52,3.1,6.74,6.61,6.91,3.85.19,7.2-2.88,7.25-6.64Z"></path><path class="cls-1" d="M115.08,94.64c-.07,12.42-9.18,21.26-21.73,21.09-11.83-.16-20.8-9.89-20.64-22.4.16-12.32,9.09-20.66,22.12-20.67,11.73,0,20.31,9.32,20.24,21.97Z"></path></g></g></svg>