<svg xmlns="http://www.w3.org/2000/svg" id="Layer_2" data-name="Layer 2" viewBox="0 0 521.04 521.03"><defs><style>      .cls-1 {        fill: #fff;        stroke-width: 0px;      }    </style></defs><g id="Layer_1-2" data-name="Layer 1"><path class="cls-1" d="M260.52,0C116.64,0,0,116.64,0,260.52s116.64,260.51,260.52,260.51,260.52-116.63,260.52-260.51S404.4,0,260.52,0ZM148.6,100.59c17.68.02,32,14.43,31.93,32.13-.06,17.65-14.56,31.94-32.26,31.82-17.42-.13-31.64-14.44-31.68-31.89-.03-17.68,14.34-32.08,32.01-32.06ZM176.06,404.53c-18.31-.14-36.62-.18-54.93.03-3.74.04-4.66-.92-4.64-4.66.15-35.79.09-71.57.09-107.36s.05-71.58-.09-107.37c-.01-3.61.71-4.77,4.58-4.73,18.47.23,36.95.19,55.43.03,3.26-.03,4.13.87,4.12,4.13-.09,71.91-.1,143.83.02,215.74,0,3.76-1.35,4.21-4.58,4.19ZM399.79,404.54c-18.16-.17-36.31-.2-54.47.01-3.87.05-4.94-.91-4.92-4.88.15-40.13.1-80.27.08-120.41,0-2.83.06-5.69-.32-8.48-2.59-19.08-17.06-28.98-37.74-25.93-16.89,2.49-25.78,12.73-25.84,30.55-.14,40.81-.06,81.61-.06,122.42q0,6.64-6.48,6.64c-17.82,0-35.64-.09-53.46.08-3.3.03-4.11-.93-4.11-4.16.09-71.95.1-143.9-.01-215.85,0-3.4,1.08-4.07,4.22-4.05,18.48.13,36.97.15,55.46-.01,3.4-.03,4.6.7,4.47,4.32-.29,8.11-.09,16.23-.09,24.45,1.39-.34,1.19-1.39,1.4-2.07,3.52-11.42,11.23-18.96,22.43-22.24,20.41-5.98,41.08-6.65,61.42.23,20.8,7.04,33.21,23.54,38.68,43.64,4.76,17.49,3.79,35.31,3.9,53.31.22,39.3.03,78.61.22,117.91.02,3.97-1.27,4.55-4.78,4.52Z"></path></g></svg>