<svg xmlns="http://www.w3.org/2000/svg" id="Layer_2" data-name="Layer 2" viewBox="0 0 207.06 206.16"><defs><style>      .cls-1 {        fill: #fff;        stroke-width: 0px;      }    </style></defs><g id="Layer_1-2" data-name="Layer 1"><path class="cls-1" d="M93.61,0c6.63,0,13.27,0,19.9,0,1.1.31,2.18.76,3.3.89,40.79,5.06,75.25,34.67,86.23,74.3,1.67,6.03,2.69,12.23,4.01,18.35v19.9c-1.98,8.18-3.14,16.66-6.08,24.48-14.48,38.54-42.71,60.57-83.09,68.23v-75.28h26.44c1.42-9.13,2.78-17.9,4.24-27.32h-31.67c.72-8.83.76-17.12,2.23-25.17,1.4-7.68,6.15-10.73,13.86-10.79,5.09-.04,10.19,0,15.43,0v-23.98c-4.32-.31-8.27-.79-12.22-.84-5.63-.08-11.33-.4-16.88.32-16.47,2.13-26.77,11.78-29.67,28.21-1.29,7.29-1.17,14.83-1.57,22.26-.17,3.23-.03,6.48-.03,10.15h-25.21v27.27h24.91v74.35c-1.93-.2-3.56-.24-5.13-.56C37.3,195.55,3.23,156.45.22,110.24-2.81,63.67,25.89,20.52,70.07,5.73c7.63-2.55,15.68-3.85,23.54-5.73Z"></path></g></svg>